<svg tabindex="0" class="focus:outline-none" aria-label="logo" role="banner" width="90" height="30" viewBox="0 0 188 55" fill="black" xmlns="http://www.w3.org/2000/svg">
                    <path d="M 12 48 C 18 34.2 24 19.8 30 6 Q 33 3 36 0 T 42 12 L 48 24 Q 51 18 54 12 Q 57 6 60 0 T 66 12 L 72 48 Q 66 48 60 12 Q 54 24 48 30 Q 42 24 36 12 Q 18 48 12 48 M 102 24 Q 102 42 90 42 C 78 36 96 30 96 18 C 96 -6 78 -6 84 18 Q 96 36 108 42 M 114 6 Q 132 0 156 0 C 162 -6 156 12 162 6 Q 138 6 120 12 C 114 18 120 0 114 6 M 144 6 Q 144 24 156 42 C 150 42 144 42 144 36 Q 144 24 132 6" stroke="#ff00ff" stroke-width="1" fill="#00"/></svg>